<?xml version="1.0" encoding="utf-8"?>
<!-- Generator: Adobe Illustrator 21.0.0, SVG Export Plug-In . SVG Version: 6.00 Build 0)  -->
<svg version="1.1" id="Слой_1" xmlns="http://www.w3.org/2000/svg" xmlns:xlink="http://www.w3.org/1999/xlink" width="370" height="101.8" x="0px" y="0px"
	 viewBox="0 0 370 101.8" style="enable-background:new 0 0 370 101.8;" xml:space="preserve">
<style type="text/css">
	.st0{fill:#FFFFFF;}
	.st1{fill:#636466;}
</style>
<g>
	<path class="st0" d="M119.9,12.4C127,9.9,127.6,1,120.5,1c-1.9,0-4.3,1.4-5.9,4.2L105,21.7c-0.4,0.8-0.9,1.4-1.4,2
		c-2.5-3.4-1.7-8.4,1.7-10.7l-1.4-1.8c-7.5,4.8-5.3,18.5,7.2,18.5C121.8,29.7,126.7,16.9,119.9,12.4L119.9,12.4z M111.1,27
		c-2.1,0-3.8-0.5-5.1-1.2c0.6-0.7,1.2-1.6,1.8-2.5l6-10.4l1,0.1C123,14.7,119.7,27,111.1,27L111.1,27z M114.9,10.7l2.9-4.9
		c2.6-4.5,5.9-1.8,4.1,1.5C120.5,9.9,118.5,10.7,114.9,10.7L114.9,10.7z M259.2,19.9l-0.2,0.3c-2,2.3-4.3,4.2-6.5,5
		c0.6-0.9,1-1.9,1.5-2.7l3.9-6.7c3.3-5.6-2.1-7.5-5.7-4.3l0.7-1.2h-3.6l-5.6,9.7l0,0l-0.2,0.3c-1.6,1.7-3.6,2.6-5.4,2.6l3.4-5.8
		c2.2-3.7,0.2-7.3-3.2-7.3c-2.7,0-4.9,1.1-6.9,4.7l-1.7,3l-1.5,2.5l-0.2,0.2c-2.6,3-5.1,5.3-6.6,5.3c-0.8,0-1.2-0.5-0.4-2l5.1-9
		c1.5-2.7,0.1-4.7-1.9-4.7c-1.5,0-3.2,0.9-5,2.7l5.7-9.9h-3.6l-9.9,17.2l-0.2,0.2c-1.3,1.5-2.9,2.9-4.3,3.9
		c1.1-3.4,0.9-8.6,3.1-13.1l-2.7-1.4c-1.5,2-4.7,6.7-7.9,10.4l-0.2,0.3c-2.6,3-5.1,5.3-6.6,5.3c-0.8,0-1.2-0.5-0.4-2l3.6-6.2
		c1.2-2.2,0.6-3.4-0.5-4.8l-2-2.4c-0.5-0.6-0.5-1.4,0.2-2.1l-1.8-2c-2,1.8-2.2,3.8-0.9,5.5l0.3,0.4c-1.6,2.2-3.7,5.2-6,8l-0.2,0.3
		c-2.6,3-5.9,5.3-8.3,5.3c-2.2,0-3.5-1.4-1.8-4.2l0.3-0.6c2.3,1,6.6,0.5,9.3-4.1l0.5-0.9c1.9-3.3,0.1-5.7-2.8-5.7
		c-2.9,0-5.2,1.5-6.7,4.1l-3.4,5.9l-0.2,0.2c-1.6,1.8-3.6,2.6-5.4,2.6l3.4-5.8c0.9-1.6,1.3-2.9,1.3-4.1c0-1.8-1.2-3.2-3.2-3.2
		c-0.9,0-1.6,0.3-2.3,0.8l4.5-7.8h-3.6l-10,17.2l-0.2,0.2c-2.6,3-5.1,5.3-6.6,5.3c-0.8,0-1.2-0.5-0.4-2l3.6-6.2
		c1.2-2.2,0.6-3.4-0.5-4.8l-2-2.4c-0.5-0.6-0.5-1.4,0.2-2.1l-1.8-2c-2,1.8-2.2,3.8-0.9,5.5l0.3,0.4c-1.6,2.2-3.7,5.2-6,8l-0.2,0.3
		c-2.6,3-5.1,5.3-6.6,5.3c-0.8,0-1.2-0.5-0.4-2l5.8-10.1h-2c0.1-1.5-1.4-3.6-3.7-3.6c-1.9,0-4.6,1.5-6.1,4.1l-5,8.6
		c-1.5,2.6-0.4,5.1,2.4,5.1c1.4,0,3.2-0.9,4.9-2.3c0.2,1.4,1.3,2.3,3.1,2.3c2.9,0,6.3-3.1,9.3-6.6c1.7-2,3-3.8,5.9-7.6l0.5,0.6
		c0.4,0.6,0.6,1.3,0.2,2l-3.8,6.5c-1.5,2.6-0.4,5.1,2.4,5.1c2.1,0,4.3-1.5,6.5-3.7v0c0,2.4,1.8,3.8,4.1,3.8c2,0,4.3-1,6.1-3.3
		c0.3,0,0.5,0,0.8,0c1.3,0,3.1-0.5,4.7-1.4c-0.2,2.6,1.7,4.5,4.8,4.5c4,0,8-3.1,11-6.6c1.7-2,3-3.8,5.9-7.6l0.5,0.6
		c0.4,0.6,0.6,1.3,0.2,2l-3.8,6.5c-1.5,2.6-0.4,5.1,2.4,5.1c2.9,0,6.3-3.1,9.3-6.6c2-2.3,3.8-4.8,5.1-6.5c-1.4,3.7-0.6,10.3-4,10.3
		c-1.2,0-1.7-1.3-1.7-1.3l-2.2,1.2c0,0,0.6,2.9,3.9,2.9c0.3,0,0.6,0,1-0.1l0.1,0c1.9-0.2,3.7-1.1,5.5-2.4l-1.2,2.1h3.6l5.4-9.4
		c5.5-6.9,7.9-6,6.4-3.4l-4.6,8c-1.5,2.6-0.4,5.1,2.4,5.1c2.1,0,4.4-1.6,6.6-3.7c0,4.5,6.3,5.4,10.1,0.6h0.8c1.1,0,2.5-0.3,3.8-0.9
		l-6.5,11.2h3.6l10.6-18.5c4-5.4,6.5-3.4,5.5-1.8l-5.4,9.3c-0.6,1-1.9,1.3-2.6,0l-2,1c0,0,0.6,2.9,3.9,2.9h0.2
		c5.2-0.1,8.6-3.2,11.5-6.6C260.3,20.6,259.7,20,259.2,19.9L259.2,19.9z M178.2,14.9c2.1-3.5,5.7-2.9,3.6,0.8l-0.5,0.9
		c-1.7,2.9-4,2.8-5.3,2.4L178.2,14.9L178.2,14.9z M132.6,20.5c-2.2,3.4-4.3,5-5.8,5c-0.8,0-1.2-0.5-0.4-2l5-8.7
		c1.9-3.3,5.7-2.5,4,0.8L132.6,20.5L132.6,20.5z M159.4,25.4c-0.8,0-1.4-0.5-1.4-1.4c0-0.5,0.2-1.1,0.6-1.8l1.3-2.2
		c0.3,1.5,1,2.9,2.3,3.7C161.4,24.8,160.3,25.4,159.4,25.4L159.4,25.4z M163.1,21.9c-0.9-0.7-1.5-1.8-1.5-3.2c0-2.5,2.5-6.7,4.5-6.7
		c0.8,0,1.3,0.6,1.3,1.5c0,0.6-0.2,1.3-0.7,2.1L163.1,21.9z M236.2,20.1H236c-1.2,0-2.1,1-2.1,2.1c0,0.4,0.1,0.9,0.3,1.2l0,0.1
		c-1.7,2.9-5.7,2.3-3.6-1.4l2.7-4.7l1.7-2.9c2.5-4.2,5.9-2.6,3.8,1.1L236.2,20.1L236.2,20.1z"/>
</g>
<g>
	<path class="st0" d="M11.4,74.2l-5.7,5.7L0,74.2l5.7-5.7L11.4,74.2z M357.7,68.5l5.7,5.7l-5.7,5.7l-5.7-5.7L357.7,68.5z"/>
	<path class="st1" d="M46.8,64v10.4h2.1v-8.3h3.3V64H46.8z M61.7,76V63.3c0-1.8-1.1-3.3-2.6-4.1c0.3,0.6,0.5,1.3,0.5,2v12.7
		c0,1.4-0.6,2.6-1.7,3.5c0.9,1,1.7,2.1,1.7,3.7v14.1c0,2.5-2.1,4.6-4.6,4.6H41.5v2.1h15.6c2.5,0,4.6-2.1,4.6-4.6V83.2
		c0-1.6-0.7-2.7-1.7-3.7C61.1,78.6,61.7,77.4,61.7,76L61.7,76z M46.8,81.8v10.5h2.1v-8.4h3.3v-2.1H46.8z M79.8,64v28.3h2.1V66.1h3.3
		V64L79.8,64z M92.1,59.2c0.3,0.6,0.5,1.3,0.5,2v34c0,2.5-2.1,4.6-4.6,4.6H77c-0.7,0-1.4-0.2-2-0.5c0.7,1.5,2.3,2.6,4.1,2.6h11.1
		c2.5,0,4.6-2.1,4.6-4.6v-34C94.7,61.5,93.6,59.9,92.1,59.2L92.1,59.2z M112.8,64v10.4h2.1v-8.3h3.3V64H112.8z M125.1,83.5
		c1.6-0.7,2.6-2.3,2.6-4.1V63.3c0-1.8-1.1-3.4-2.6-4.1c0.3,0.6,0.5,1.3,0.5,2v16.1c0,1.7-1,3.3-2.6,4.1l3.1,18.4h-5.7l0.4,2.1h7.4
		L125.1,83.5L125.1,83.5z M107.5,99.7v2.1h7.4V83.9h1.1l-0.3-2.1h-2.8v17.9H107.5z M144.8,64v28.3h2.1V66.1h3.3V64L144.8,64z
		 M157.2,59.2c0.3,0.6,0.5,1.3,0.5,2v34c0,2.5-2.1,4.6-4.6,4.6H142c-0.7,0-1.4-0.2-2-0.5c0.7,1.5,2.3,2.6,4.1,2.6h11.1
		c2.5,0,4.6-2.1,4.6-4.6v-34C159.7,61.5,158.7,59.9,157.2,59.2L157.2,59.2z M177.9,64v28.3h2.1V66.1h3.3V64L177.9,64z M190.2,59.2
		c0.3,0.6,0.5,1.3,0.5,2v34c0,2.5-2.1,4.6-4.6,4.6h-13.6v2.1h15.6c2.5,0,4.6-2.1,4.6-4.6v-34C192.8,61.5,191.7,59.9,190.2,59.2
		L190.2,59.2z M205.9,101.8h7.4V58.7h-2.1v41h-5.3L205.9,101.8z M246.2,58.7h-2.1v41h-5.9l0.6,2.1h7.4V58.7z M233.4,88.1l-2.1-7.2
		v18.8H226v2.1h7.4V88.1z M263.6,83.9h6.1v-2.1h-8.2c-0.7,0-1.4-0.2-2-0.5C260.2,82.9,261.8,83.9,263.6,83.9L263.6,83.9z
		 M264.3,87.2v5.1h2.1v-5.6L264.3,87.2z M276.7,59.2c0.3,0.6,0.5,1.3,0.5,2v8.7l-5.4,1.2v2.6l7.5-1.7v-8.7
		C279.2,61.5,278.2,60,276.7,59.2z M276.7,77c0.3,0.6,0.5,1.3,0.5,2v16.2c0,2.5-2.1,4.6-4.6,4.6h-11.1c-0.7,0-1.4-0.2-2-0.5
		c0.7,1.5,2.3,2.6,4.1,2.6h11.1c2.5,0,4.6-2.1,4.6-4.6V81.1C279.2,79.3,278.2,77.7,276.7,77L276.7,77z M266.4,66.1h3.3V64h-5.4v10.4
		h2.1L266.4,66.1z M297.3,99.7H292v2.1h7.4V86.3l-1.4-4.5h-0.7L297.3,99.7z M313.2,58.7h-2.8l-6.2,19.4l6.9,21.6h-6l0.6,1.8l0.1,0.2
		h7.5l-6.9-21.6L313.2,58.7z M332.6,101.8V58.7h-2.1v41h-5.3v2.1H332.6z M361.7,83.9l5.7-5.7l2.1,2.1l-5.7,5.7L361.7,83.9z
		 M9.7,83.9l5.7-5.7l2.1,2.1L11.8,86L9.7,83.9z"/>
	<path class="st0" d="M55.7,69.9c0,1.4-0.6,2.6-1.7,3.5c0.9,1,1.7,2.1,1.7,3.7v14.1c0,2.5-2.1,4.6-4.6,4.6H35.5V52.7h15.6
		c2.5,0,4.6,2,4.6,4.6V69.9z M48.2,60.1h-5.4v10.4h5.4C48.2,70.5,48.2,60.1,48.2,60.1z M48.2,77.9h-5.4v10.5h5.4
		C48.2,88.3,48.2,77.9,48.2,77.9z M84.1,52.7c2.5,0,4.6,2,4.6,4.6v34c0,2.5-2.1,4.6-4.6,4.6H73c-2.5,0-4.6-2.1-4.6-4.6v-34
		c0-2.5,2-4.6,4.6-4.6C73,52.7,84.1,52.7,84.1,52.7z M81.2,60.1h-5.4v28.3h5.4V60.1z M114.7,95.8l-3-17.9h-2.8v17.9h-7.4V52.7h15.6
		c2.5,0,4.5,2,4.5,4.6v16.1c0,1.7-1,3.3-2.6,4.1l3.1,18.3L114.7,95.8L114.7,95.8z M114.2,60.1h-5.4v10.4h5.4V60.1z M149.1,52.7
		c2.5,0,4.6,2,4.6,4.6v34c0,2.5-2.1,4.6-4.6,4.6h-11.1c-2.5,0-4.6-2.1-4.6-4.6v-34c0-2.5,2-4.6,4.6-4.6L149.1,52.7L149.1,52.7z
		 M146.2,60.1h-5.4v28.3h5.4L146.2,60.1L146.2,60.1z M182.2,52.7c2.5,0,4.6,2,4.6,4.6v34c0,2.5-2.1,4.6-4.6,4.6h-15.6V52.7
		L182.2,52.7L182.2,52.7z M179.3,60.1h-5.4v28.3h5.4V60.1z M199.9,52.7h7.4v43.1h-7.4V52.7z M240.2,52.7v43.1h-7.4l-5.4-18.8v18.8
		H220V52.7h7.3l5.4,17.7V52.7H240.2z M268.6,70.5c2.5,0,4.6,2,4.6,4.6v16.2c0,2.5-2.1,4.6-4.6,4.6h-11.1c-2.5,0-4.6-2.1-4.6-4.6
		v-8.9l7.4-1.7v7.7h5.4V77.9h-8.2c-2.5,0-4.6-2-4.6-4.6V57.2c0-2.5,2-4.6,4.6-4.6h11.1c2.5,0,4.6,2,4.6,4.6V66l-7.5,1.7v-7.6h-5.4
		v10.4H268.6L268.6,70.5z M300.2,74.2l6.9,21.6h-7.5l-0.1-0.2l-5.5-17.7h-0.7v17.9H286V52.7h7.4v17.8h0.6l5.7-17.8h7.5L300.2,74.2
		L300.2,74.2z M319.2,52.7h7.4v43.1h-7.4V52.7z"/>
</g>
</svg>
