<svg version="1.1"
	 xmlns="http://www.w3.org/2000/svg" xmlns:xlink="http://www.w3.org/1999/xlink" xmlns:a="http://ns.adobe.com/AdobeSVGViewerExtensions/3.0/"
	 x="0px" y="0px" width="225.8px" height="30px" viewBox="0 0 225.8 30"
	 style="overflow:scroll;enable-background:new 0 0 225.8 30;" xml:space="preserve">
<style type="text/css">
	.st0{fill:#FFFFFF;}
	.st1{fill:#636466;}
</style>
<g>
	<rect x="1" y="10.7" transform="matrix(0.7072 -0.7071 0.7071 0.7072 -8.2906 6.3281)" class="st0" width="4.9" height="4.9"/>
	<rect x="216.2" y="10.7" transform="matrix(0.7071 -0.7071 0.7071 0.7071 54.7089 158.4465)" class="st0" width="4.9" height="4.9"/>
	<g>
		<polygon class="st1" points="28.6,13.3 29.9,13.3 29.9,8.2 31.9,8.2 31.9,6.9 28.6,6.9 		"/>
		<path class="st1" d="M37.7,14.2V6.5c0-1.1-0.7-2-1.6-2.5c0.2,0.4,0.3,0.8,0.3,1.2V13c0,0.9-0.4,1.6-1,2.1c0.6,0.6,1,1.3,1,2.3V26
			c0,1.5-1.3,2.8-2.8,2.8h-8.3V30h9.6c1.5,0,2.8-1.3,2.8-2.8v-8.6c0-1-0.5-1.7-1-2.3C37.3,15.9,37.7,15.1,37.7,14.2z"/>
		<polygon class="st1" points="28.6,24.2 29.9,24.2 29.9,19.1 31.9,19.1 31.9,17.8 28.6,17.8 		"/>
	</g>
	<g>
		<polygon class="st1" points="48.8,24.2 50.1,24.2 50.1,8.2 52.1,8.2 52.1,6.9 48.8,6.9 		"/>
		<path class="st1" d="M56.3,4c0.2,0.4,0.3,0.8,0.3,1.2V26c0,1.5-1.3,2.8-2.8,2.8H47c-0.4,0-0.8-0.1-1.2-0.3
			c0.5,0.9,1.4,1.6,2.5,1.6h6.8c1.5,0,2.8-1.3,2.8-2.8V6.5C57.9,5.4,57.2,4.4,56.3,4z"/>
	</g>
	<g>
		<polygon class="st1" points="69,13.3 70.2,13.3 70.2,8.2 72.2,8.2 72.2,6.9 69,6.9 		"/>
		<path class="st1" d="M76.4,18.8c1-0.5,1.6-1.4,1.6-2.5V6.5c0-1.1-0.6-2.1-1.6-2.5c0.2,0.4,0.3,0.8,0.3,1.2v9.9
			c0,1.1-0.6,2-1.6,2.5L77,28.8h-3.5l0.2,1.3h4.5L76.4,18.8z"/>
		<polygon class="st1" points="70.7,17.8 69,17.8 69,28.8 65.7,28.8 65.7,30 70.2,30 70.2,19.1 70.9,19.1 		"/>
	</g>
	<g>
		<polygon class="st1" points="88.5,24.2 89.8,24.2 89.8,8.2 91.8,8.2 91.8,6.9 88.5,6.9 		"/>
		<path class="st1" d="M96.1,4c0.2,0.4,0.3,0.8,0.3,1.2V26c0,1.5-1.3,2.8-2.8,2.8h-6.8c-0.4,0-0.8-0.1-1.2-0.3
			C86,29.4,87,30,88.1,30h6.8c1.5,0,2.8-1.3,2.8-2.8V6.5C97.6,5.4,97,4.4,96.1,4z"/>
	</g>
	<g>
		<polygon class="st1" points="108.7,24.2 110,24.2 110,8.2 112,8.2 112,6.9 108.7,6.9 		"/>
		<path class="st1" d="M116.2,4c0.2,0.4,0.3,0.8,0.3,1.2V26c0,1.5-1.3,2.8-2.8,2.8h-8.3V30h9.6c1.5,0,2.8-1.3,2.8-2.8V6.5
			C117.8,5.4,117.2,4.4,116.2,4z"/>
	</g>
	<polygon class="st1" points="129.1,3.7 129.1,28.8 125.9,28.8 125.9,30 130.4,30 130.4,3.7 	"/>
	<g>
		<polygon class="st1" points="149.2,3.7 149.2,28.8 145.6,28.8 146,30 150.5,30 150.5,3.7 		"/>
		<polygon class="st1" points="141.4,17.2 141.4,28.8 138.1,28.8 138.1,30 142.6,30 142.6,21.7 		"/>
	</g>
	<g>
		<path class="st1" d="M161.1,19.1h3.7v-1.3h-5c-0.4,0-0.9-0.1-1.2-0.3C159.1,18.4,160,19.1,161.1,19.1z"/>
		<polygon class="st1" points="162.8,20.8 161.6,21.1 161.6,24.2 162.8,24.2 		"/>
		<path class="st1" d="M169.1,4c0.2,0.4,0.3,0.8,0.3,1.2v5.3l-3.3,0.8v1.6l4.6-1.1V6.5C170.7,5.4,170,4.4,169.1,4z"/>
		<path class="st1" d="M169.1,14.9c0.2,0.4,0.3,0.8,0.3,1.2V26c0,1.5-1.3,2.8-2.8,2.8h-6.8c-0.4,0-0.8-0.1-1.2-0.3
			c0.5,0.9,1.4,1.6,2.5,1.6h6.8c1.5,0,2.8-1.3,2.8-2.8v-9.9C170.7,16.3,170,15.3,169.1,14.9z"/>
		<polygon class="st1" points="161.6,6.9 161.6,13.3 162.8,13.3 162.8,8.2 164.8,8.2 164.8,6.9 		"/>
	</g>
	<g>
		<polygon class="st1" points="182.1,17.8 181.7,17.8 181.7,28.8 178.5,28.8 178.5,30 183,30 183,20.6 		"/>
		<polygon class="st1" points="191.4,3.7 189.7,3.7 185.9,15.6 190.1,28.8 186.5,28.8 186.8,29.9 186.8,30 191.4,30 187.2,16.8
			"/>
	</g>
	<polygon class="st1" points="202,3.7 202,28.8 198.8,28.8 198.8,30 203.3,30 203.3,3.7 	"/>
	<rect x="221" y="17.1" transform="matrix(0.707 -0.7072 0.7072 0.707 52.752 163.2814)" class="st1" width="4.9" height="1.8"/>
	<rect x="5.8" y="17.1" transform="matrix(0.7071 -0.7071 0.7071 0.7071 -10.2803 11.1331)" class="st1" width="4.9" height="1.8"/>
	<g>
		<path class="st0" d="M34,10.5c0,0.9-0.4,1.6-1,2.1c0.6,0.6,1,1.3,1,2.3v8.6c0,1.5-1.3,2.8-2.8,2.8h-9.6V0h9.6
			C32.7,0,34,1.2,34,2.8V10.5z M29.5,4.5h-3.3v6.4h3.3V4.5z M29.5,15.4h-3.3v6.4h3.3V15.4z"/>
		<path class="st0" d="M51.4,0c1.5,0,2.8,1.2,2.8,2.8v20.8c0,1.5-1.3,2.8-2.8,2.8h-6.8c-1.5,0-2.8-1.3-2.8-2.8V2.8
			c0-1.5,1.2-2.8,2.8-2.8H51.4z M49.6,4.5h-3.3v17.3h3.3V4.5z"/>
		<path class="st0" d="M70.1,26.3l-1.8-11h-1.7v11H62V0h9.6c1.5,0,2.7,1.2,2.7,2.8v9.9c0,1.1-0.6,2-1.6,2.5l1.9,11.2H70.1z
			 M69.8,4.5h-3.3v6.4h3.3V4.5z"/>
		<path class="st0" d="M91.2,0c1.5,0,2.8,1.2,2.8,2.8v20.8c0,1.5-1.3,2.8-2.8,2.8h-6.8c-1.5,0-2.8-1.3-2.8-2.8V2.8
			c0-1.5,1.2-2.8,2.8-2.8H91.2z M89.4,4.5h-3.3v17.3h3.3V4.5z"/>
		<path class="st0" d="M111.3,0c1.5,0,2.8,1.2,2.8,2.8v20.8c0,1.5-1.3,2.8-2.8,2.8h-9.6V0H111.3z M109.6,4.5h-3.3v17.3h3.3V4.5z"/>
		<path class="st0" d="M122.2,0h4.5v26.3h-4.5V0z"/>
		<path class="st0" d="M146.8,0v26.3h-4.5L139,14.8v11.5h-4.5V0h4.5l3.3,10.8V0H146.8z"/>
		<path class="st0" d="M164.2,10.9c1.5,0,2.8,1.2,2.8,2.8v9.9c0,1.5-1.3,2.8-2.8,2.8h-6.8c-1.5,0-2.8-1.3-2.8-2.8v-5.4l4.5-1.1v4.7
			h3.3v-6.4h-5c-1.5,0-2.8-1.2-2.8-2.8V2.8c0-1.5,1.2-2.8,2.8-2.8h6.8c1.5,0,2.8,1.2,2.8,2.8v5.3l-4.6,1.1V4.5h-3.3v6.4H164.2z"/>
		<path class="st0" d="M183.5,13.1l4.2,13.2h-4.6l0-0.2l-3.4-10.8h-0.4v11h-4.5V0h4.5v10.9h0.3L183.1,0h4.6L183.5,13.1z"/>
		<path class="st0" d="M195.1,0h4.5v26.3h-4.5V0z"/>
	</g>
</g>
</svg>
