<?xml version="1.0" encoding="utf-8"?>
<svg
  width="50"
  height="50"
  version="1.1"
  xmlns="http://www.w3.org/2000/svg"
  xmlns:xlink="http://www.w3.org/1999/xlink"
  x="0px"
  y="0px"
  viewBox="0 0 40 50"
  xml:space="preserve">
<path fill="#ffffff" d="M37.2,26.6c-1.9-2-4.3-3.3-7.4-4v-0.3c2.1-0.9,3.8-2.3,5.1-4.2c1.2-1.9,1.8-4.1,1.8-6.5c0-2.1-0.4-4-1.3-5.6c-0.9-1.6-2.2-2.9-4-3.9c-1.7-0.9-3.4-1.5-5.3-1.8C24.1,0.1,21.3,0,17.7,0H0v50h20c3.5,0,6.3-0.3,8.6-0.9c2.2-0.6,4.3-1.7,6.2-3.2c1.6-1.2,2.9-2.8,3.8-4.7c0.9-1.9,1.4-4.1,1.4-6.5C40,31.3,39.1,28.6,37.2,26.6L37.2,26.6zM12.5,9.2h0.9c2.2,0,3.9,0,5.1,0.1c1.1,0,2.1,0.2,2.9,0.6c0.9,0.4,1.5,1,1.9,1.8c0.4,0.9,0.6,1.7,0.6,2.5c0,1.1-0.2,2.1-0.6,2.9c-0.4,0.8-1.1,1.5-2.1,1.9c-0.9,0.4-1.8,0.7-2.7,0.7c-0.9,0-2.4,0.1-4.5,0.1h-1.6L12.5,9.2L12.5,9.2z M26.3,37.7c-0.5,1-1.4,1.7-2.5,2.2c-1.3,0.6-2.6,0.9-3.8,0.9c-1.3,0-3.5,0.1-6.8,0.1h-0.7V28.3h2.3c2.2,0,4,0,5.4,0.1c1.3,0,2.4,0.2,3.1,0.5c1.3,0.4,2.2,1.1,2.8,2c0.6,0.9,0.9,2.1,0.9,3.6C27.1,35.7,26.8,36.7,26.3,37.7L26.3,37.7z"/>
</svg>
